<?xml version="1.0" encoding="utf-8"?>
<svg viewBox="0 0 500 500" xmlns="http://www.w3.org/2000/svg">
  <path d="M 122.432 160.722 L 150.099 217.551 L 198.702 217.551 L 171.036 160.722 L 204.31 160.722 L 231.977 217.551 L 280.58 217.551 L 252.914 160.722 L 286.188 160.722 L 313.855 217.551 L 362.458 217.551 L 334.791 160.722 L 376.665 160.722 C 382.647 160.722 387.881 162.966 392.368 167.452 C 396.854 171.939 399.097 177.173 399.097 183.155 L 399.097 377.568 C 399.097 383.55 396.854 388.784 392.368 393.271 C 387.881 397.757 382.647 400 376.665 400 L 122.432 400 C 116.45 400 111.216 397.757 106.73 393.271 C 102.243 388.784 100 383.55 100 377.568 L 100 183.155 C 100 177.173 102.243 171.939 106.73 167.452 C 111.216 162.966 116.45 160.722 122.432 160.722 Z M 122.432 239.983 L 122.432 377.568 C 122.432 377.568 122.432 377.568 122.432 377.568 C 122.432 377.568 122.432 377.568 122.432 377.568 L 376.665 377.568 C 376.665 377.568 376.665 377.568 376.665 377.568 C 376.665 377.568 376.665 377.568 376.665 377.568 L 376.665 239.983 L 122.432 239.983 Z M 122.432 239.983 L 122.432 377.568 C 122.432 377.568 122.432 377.568 122.432 377.568 C 122.432 377.568 122.432 377.568 122.432 377.568 C 122.432 377.568 122.432 377.568 122.432 377.568 C 122.432 377.568 122.432 377.568 122.432 377.568 L 122.432 239.983 Z" style="fill: rgb(100, 118, 135);"/>
  <path d="M 367.031 144.043 C 365.764 144.043 364.716 143.629 363.888 142.8 C 363.059 141.972 362.645 140.924 362.645 139.656 C 362.645 138.389 363.059 137.341 363.888 136.513 C 364.716 135.684 365.764 135.27 367.031 135.27 L 394.374 135.27 C 395.642 135.27 396.69 135.684 397.518 136.513 C 398.347 137.341 398.761 138.389 398.761 139.656 C 398.761 140.924 398.347 141.972 397.518 142.8 C 396.69 143.629 395.642 144.043 394.374 144.043 L 367.031 144.043 Z M 367.031 71.518 C 365.764 71.518 364.716 71.104 363.888 70.275 C 363.059 69.447 362.645 68.399 362.645 67.132 C 362.645 65.864 363.059 64.817 363.888 63.988 C 364.716 63.159 365.764 62.745 367.031 62.745 L 418.647 62.745 C 419.914 62.745 420.962 63.159 421.791 63.988 C 422.619 64.817 423.033 65.864 423.033 67.132 C 423.033 68.399 422.619 69.447 421.791 70.275 C 420.962 71.104 419.914 71.518 418.647 71.518 L 367.031 71.518 Z M 411.921 156.033 C 410.654 156.033 409.606 155.619 408.777 154.79 C 407.948 153.962 407.534 152.914 407.534 151.646 L 407.534 127.52 C 407.534 126.253 407.948 125.205 408.777 124.377 C 409.606 123.548 410.654 123.134 411.921 123.134 C 413.188 123.134 414.236 123.548 415.064 124.377 C 415.893 125.205 416.307 126.253 416.307 127.52 L 416.307 135.27 L 463.536 135.27 C 464.803 135.27 465.851 135.684 466.68 136.513 C 467.508 137.341 467.923 138.389 467.923 139.656 C 467.923 140.924 467.508 141.972 466.68 142.8 C 465.851 143.629 464.803 144.043 463.536 144.043 L 416.307 144.043 L 416.307 151.646 C 416.307 152.914 415.893 153.962 415.064 154.79 C 414.236 155.619 413.188 156.033 411.921 156.033 Z M 394.374 119.771 C 393.107 119.771 392.059 119.356 391.231 118.528 C 390.402 117.699 389.988 116.651 389.988 115.384 L 389.988 107.781 L 367.031 107.781 C 365.764 107.781 364.716 107.366 363.888 106.538 C 363.059 105.709 362.645 104.661 362.645 103.394 C 362.645 102.127 363.059 101.079 363.888 100.25 C 364.716 99.422 365.764 99.007 367.031 99.007 L 389.988 99.007 L 389.988 91.112 C 389.988 89.844 390.402 88.796 391.231 87.968 C 392.059 87.139 393.107 86.725 394.374 86.725 C 395.642 86.725 396.69 87.139 397.518 87.968 C 398.347 88.796 398.761 89.844 398.761 91.112 L 398.761 115.384 C 398.761 116.651 398.347 117.699 397.518 118.528 C 396.69 119.356 395.642 119.771 394.374 119.771 Z M 411.921 107.781 C 410.654 107.781 409.606 107.366 408.777 106.538 C 407.948 105.709 407.534 104.661 407.534 103.394 C 407.534 102.127 407.948 101.079 408.777 100.25 C 409.606 99.422 410.654 99.007 411.921 99.007 L 463.536 99.007 C 464.803 99.007 465.851 99.422 466.68 100.25 C 467.508 101.079 467.923 102.127 467.923 103.394 C 467.923 104.661 467.508 105.709 466.68 106.538 C 465.851 107.366 464.803 107.781 463.536 107.781 L 411.921 107.781 Z M 436.193 83.654 C 434.926 83.654 433.878 83.24 433.049 82.412 C 432.221 81.583 431.807 80.535 431.807 79.268 L 431.807 55.142 C 431.807 53.874 432.221 52.827 433.049 51.998 C 433.878 51.169 434.926 50.755 436.193 50.755 C 437.46 50.755 438.508 51.169 439.337 51.998 C 440.165 52.827 440.58 53.874 440.58 55.142 L 440.58 62.745 L 463.536 62.745 C 464.803 62.745 465.851 63.159 466.68 63.988 C 467.508 64.817 467.923 65.864 467.923 67.132 C 467.923 68.399 467.508 69.447 466.68 70.275 C 465.851 71.104 464.803 71.518 463.536 71.518 L 440.58 71.518 L 440.58 79.268 C 440.58 80.535 440.165 81.583 439.337 82.412 C 438.508 83.24 437.46 83.654 436.193 83.654 Z" style="paint-order: stroke; fill: rgb(100, 118, 135);"/>
</svg>